<svg width="32" height="32" viewBox="0 0 32 32" xmlns="http://www.w3.org/2000/svg">
  <!-- 背景圆形 -->
  <circle cx="16" cy="16" r="15" fill="#007acc" stroke="#005a9e" stroke-width="2"/>
  
  <!-- 工具图标 - 齿轮 -->
  <g transform="translate(16, 16)">
    <!-- 外齿轮 -->
    <path d="M-8,-2 L-6,-2 L-6,-4 L-4,-4 L-4,-6 L-2,-6 L-2,-8 L2,-8 L2,-6 L4,-6 L4,-4 L6,-4 L6,-2 L8,-2 L8,2 L6,2 L6,4 L4,4 L4,6 L2,6 L2,8 L-2,8 L-2,6 L-4,6 L-4,4 L-6,4 L-6,2 L-8,2 Z" fill="#ffffff"/>
    
    <!-- 内齿轮 -->
    <circle cx="0" cy="0" r="3" fill="#007acc"/>
    
    <!-- 中心点 -->
    <circle cx="0" cy="0" r="1" fill="#ffffff"/>
  </g>
  
  <!-- 装饰性小点 -->
  <circle cx="8" cy="8" r="1" fill="#ffffff" opacity="0.7"/>
  <circle cx="24" cy="8" r="1" fill="#ffffff" opacity="0.7"/>
  <circle cx="8" cy="24" r="1" fill="#ffffff" opacity="0.7"/>
  <circle cx="24" cy="24" r="1" fill="#ffffff" opacity="0.7"/>
</svg>
